<svg width="65" height="58" viewBox="0 0 65 58" fill="none" xmlns="http://www.w3.org/2000/svg">
<path d="M24.6359 28.1565L54.2738 48.4277C55.8375 49.4972 57.9723 49.0959 59.0408 47.5315V47.5315C60.1066 45.9712 59.7092 43.8427 58.1522 42.7722L28.7012 22.522" stroke="#005BA9" stroke-width="3"/>
<path d="M22.0662 31.5012L30.3771 18.5731" stroke="#005BA9" stroke-width="3"/>
<path d="M8.53013 22.332L17.4568 9.40377" stroke="#005BA9" stroke-width="3"/>
<rect x="3.95304" y="26.1771" width="6.06629" height="19.6847" rx="3.03314" transform="rotate(-55.7778 3.95304 26.1771)" stroke="#005BA9" stroke-width="3" stroke-linejoin="round"/>
<rect x="15.9628" y="8.6038" width="6.06629" height="19.6847" rx="3.03314" transform="rotate(-55.7778 15.9628 8.6038)" stroke="#005BA9" stroke-width="3" stroke-linejoin="round"/>
<path d="M35.3878 50.5347H4.29792C2.78287 50.5347 1.55469 51.7629 1.55469 53.2779C1.55469 54.7929 2.78287 56.0211 4.29792 56.0211H35.3878C36.9029 56.0211 38.1311 54.7929 38.1311 53.2779C38.1311 51.7629 36.9029 50.5347 35.3878 50.5347Z" stroke="#005BA9" stroke-width="3" stroke-linejoin="round"/>
</svg>
