<svg version="1.1" xmlns="http://www.w3.org/2000/svg" xmlns:xlink="http://www.w3.org/1999/xlink" x="0px" y="0px"
	 viewBox="0 0 160 160" style="enable-background:new 0 0 160 160;" xml:space="preserve">
<g>
	<circle style="fill:#FFFFFF;" cx="80" cy="80" r="80"/>
	<path style="fill-rule:evenodd;clip-rule:evenodd;fill:#E8F6FD;" d="M68.8,45.5c-1.1-2.3-1-5,0.5-7.3c2.3-3.3,6.8-4.2,10.1-1.9
		l18,12.3c3.3,2.3,4.2,6.8,1.9,10.1c-1.7,2.5-4.6,3.6-7.3,3.1l-2,3.1L137,97.4c3.2,2.2,4,6.5,1.8,9.7c-2.2,3.2-6.5,4-9.7,1.8
		L82.4,76.9l-1.8,2.8c1.1,2.3,1,5.1-0.5,7.4c-2.3,3.3-6.8,4.2-10.1,1.9L52,76.7c-3.3-2.3-4.2-6.8-1.9-10.1c1.5-2.2,4-3.3,6.4-3.2
		L68.8,45.5z"/>
	<path style="fill-rule:evenodd;clip-rule:evenodd;fill:#E8F6FD;" d="M43.2,114.4c-2.4,0.3-4.2,2.3-4.2,4.8c0,2.7,2.1,4.8,4.8,4.8
		h60.3c2.6,0,4.8-2.1,4.8-4.8c0-2.5-1.8-4.5-4.2-4.8c-0.4-5.4-4.8-9.6-10.2-9.6h-41C48,104.8,43.6,109.1,43.2,114.4z"/>
	<path style="fill:#223239;" d="M126.1,102.5l-1,1.4L126.1,102.5z M76.5,70.7l48.7,33.3l1.9-2.8L78.4,67.8L76.5,70.7z M133.5,91.8
		L85.1,58.6l-1.9,2.8l48.4,33.3L133.5,91.8z M135.4,102c2.3-3.3,1.4-7.9-1.9-10.2l-1.9,2.8c1.8,1.2,2.2,3.7,1,5.4L135.4,102z
		 M125.2,103.9c3.3,2.3,7.9,1.4,10.2-1.9l-2.8-1.9c-1.2,1.8-3.7,2.2-5.4,1L125.2,103.9z"/>
	<path style="fill:none;stroke:#223239;stroke-width:3;" d="M73.2,74.7l13.6-21.2"/>
	<path style="fill:none;stroke:#223239;stroke-width:3;" d="M51,59.7l14.7-21.2"/>
	<path style="fill:none;stroke:#223239;stroke-width:3;stroke-linejoin:round;" d="M45.7,61.4L45.7,61.4c1.8-2.6,5.3-3.3,8-1.5
		l18.5,12.6c2.6,1.8,3.3,5.3,1.5,8l0,0c-1.8,2.6-5.3,3.3-8,1.5L47.2,69.4C44.6,67.6,43.9,64.1,45.7,61.4z"/>
	<path style="fill:none;stroke:#223239;stroke-width:3;stroke-linejoin:round;" d="M65.4,32.6L65.4,32.6c1.8-2.6,5.3-3.3,8-1.5
		l18.5,12.6c2.6,1.8,3.3,5.3,1.5,8l0,0c-1.8,2.6-5.3,3.3-8,1.5L66.9,40.6C64.3,38.8,63.6,35.2,65.4,32.6z"/>
	<path style="fill:none;stroke:#223239;stroke-width:3;stroke-linejoin:round;" d="M38.7,111h61.8c1.8,0,3.2,1.4,3.2,3.2v0
		c0,1.8-1.4,3.2-3.2,3.2H38.7c-1.8,0-3.2-1.4-3.2-3.2v0C35.5,112.4,36.9,111,38.7,111z"/>
	<path style="fill:none;stroke:#223239;stroke-width:3;" d="M39.6,110.1L39.6,110.1c0-5,4-9,9-9h42c5,0,9,4,9,9l0,0"/>
</g>
</svg>
